<?xml version="1.0" standalone="no"?>
<!DOCTYPE svg PUBLIC "-//W3C//DTD SVG 20010904//EN"
 "http://www.w3.org/TR/2001/REC-SVG-20010904/DTD/svg10.dtd">
<svg version="1.0" xmlns="http://www.w3.org/2000/svg"
 width="1400.000000pt" height="1400.000000pt" viewBox="0 0 1400.000000 1400.000000"
 preserveAspectRatio="xMidYMid meet">
<metadata>
Created by potrace 1.11, written by Peter Selinger 2001-2013
</metadata>
<g transform="translate(0.000000,1400.000000) scale(0.100000,-0.100000)"
fill="#000000" stroke="none">
<path d="M8605 13991 c-16 -4 -45 -15 -62 -25 -18 -9 -33 -13 -33 -9 0 5 -4 4
-8 -2 -8 -11 -110 -57 -129 -58 -7 0 -13 -4 -13 -9 0 -4 -4 -8 -10 -8 -5 0
-39 -13 -75 -30 -36 -16 -72 -30 -80 -30 -8 0 -15 -4 -15 -10 0 -5 -7 -10 -15
-10 -8 0 -23 -4 -33 -10 -9 -5 -51 -23 -92 -41 -41 -17 -95 -40 -120 -52 -61
-27 -129 -56 -138 -58 -7 -3 -96 -42 -200 -90 -35 -16 -66 -29 -68 -29 -3 0
-24 -9 -47 -19 -23 -11 -45 -20 -50 -20 -4 0 -22 -8 -40 -18 -17 -9 -36 -18
-42 -19 -5 -1 -44 -18 -85 -37 -71 -32 -109 -49 -120 -52 -3 0 -25 -10 -50
-22 -99 -45 -140 -62 -140 -55 0 4 -4 2 -8 -3 -4 -6 -20 -16 -37 -24 -16 -7
-42 -20 -57 -28 -15 -7 -29 -13 -30 -13 -2 1 -16 -4 -33 -11 -16 -7 -32 -13
-35 -14 -3 -1 -21 -8 -40 -17 -84 -38 -115 -52 -120 -53 -3 0 -14 -6 -25 -12
-11 -6 -23 -12 -27 -13 -40 -10 -48 -13 -48 -19 0 -4 -6 -8 -12 -8 -7 0 -85
-32 -173 -71 -88 -38 -230 -100 -315 -137 -143 -62 -255 -111 -355 -156 -46
-20 -90 -60 -111 -101 -17 -33 -26 -126 -13 -134 5 -3 9 -12 9 -21 0 -24 39
-72 79 -97 20 -12 104 -51 186 -85 83 -35 174 -74 203 -87 29 -13 55 -24 57
-24 2 0 28 -11 57 -24 29 -13 100 -44 158 -68 58 -25 166 -71 240 -103 74 -31
149 -63 165 -70 84 -35 165 -70 213 -91 29 -13 55 -24 57 -24 2 0 34 -13 70
-30 36 -16 68 -30 70 -30 3 0 24 -9 48 -19 23 -11 92 -40 152 -66 61 -26 128
-55 151 -66 22 -10 63 -27 90 -38 27 -10 67 -27 89 -37 22 -10 42 -18 45 -19
3 -1 23 -9 45 -19 22 -10 61 -26 86 -36 26 -10 68 -29 95 -41 27 -12 64 -28
82 -35 17 -8 47 -20 65 -28 17 -8 149 -65 292 -127 231 -99 267 -112 325 -114
46 -2 77 2 105 15 100 46 156 70 160 70 3 0 24 9 48 19 73 34 236 103 247 106
3 0 15 6 28 13 12 7 22 10 22 6 0 -4 8 0 18 9 10 9 27 18 38 20 10 1 45 15 78
30 32 15 60 27 62 27 2 0 27 11 56 24 29 13 175 75 323 139 149 63 288 123
310 132 22 10 45 19 50 21 9 2 247 104 290 124 11 5 70 30 130 56 61 25 126
53 145 61 19 8 44 19 55 23 88 38 124 53 150 65 17 7 48 21 70 30 22 9 49 20
60 25 105 48 205 87 209 82 3 -3 6 0 6 6 0 7 5 12 11 12 5 0 35 11 65 25 30
14 57 25 59 25 2 0 28 11 57 24 29 13 82 36 118 52 81 35 116 60 140 99 43 70
34 178 -21 236 -29 31 -158 101 -171 93 -4 -3 -8 -1 -8 3 0 5 -28 19 -62 33
-35 13 -67 27 -73 31 -5 3 -140 64 -300 134 -284 125 -338 149 -440 195 -27
12 -84 37 -125 55 -41 18 -101 44 -133 59 -32 14 -60 26 -62 26 -2 0 -32 13
-67 29 -137 64 -292 131 -305 131 -7 0 -13 5 -13 10 0 6 -5 10 -10 10 -6 0
-32 10 -58 21 -26 12 -69 31 -97 44 -27 12 -95 41 -150 65 -55 24 -104 47
-110 52 -5 4 -17 8 -27 8 -10 0 -18 5 -18 12 0 6 -3 9 -6 6 -3 -3 -44 12 -92
33 -48 22 -96 44 -107 49 -11 4 -45 19 -75 33 -218 98 -379 168 -382 166 -2 0
-26 11 -53 25 -56 27 -124 38 -170 27z"/>
<path d="M5650 11907 c-19 -5 -37 -12 -40 -16 -3 -3 -17 -14 -32 -24 -62 -39
-90 -153 -57 -227 33 -73 57 -88 274 -180 55 -23 118 -50 140 -60 138 -61 517
-220 525 -220 6 0 10 -4 10 -8 0 -5 6 -9 13 -9 11 -1 253 -103 364 -154 24
-10 45 -19 47 -19 2 0 25 -10 52 -22 27 -12 51 -23 54 -23 3 -1 21 -8 40 -17
19 -8 64 -28 100 -43 82 -34 114 -48 170 -73 25 -11 149 -63 275 -117 127 -54
250 -106 275 -117 25 -11 59 -26 75 -33 33 -14 78 -33 140 -61 22 -9 42 -18
45 -18 8 -2 159 -66 215 -91 48 -21 136 -59 200 -86 86 -36 147 -38 221 -8 16
7 31 13 34 14 3 1 21 8 41 17 20 9 45 19 57 22 12 4 22 11 22 15 0 4 6 8 14 8
7 0 56 18 107 41 155 68 174 76 179 77 3 0 11 4 18 8 6 5 12 5 12 0 0 -4 4 -3
8 2 4 6 86 44 182 84 218 93 270 115 375 162 28 13 52 23 55 24 6 0 172 71
225 95 22 10 89 39 150 65 60 26 127 54 150 64 45 20 77 34 85 35 3 1 15 7 28
15 13 7 33 14 44 16 12 3 24 8 27 12 3 5 13 9 21 11 8 2 33 12 56 22 130 60
223 97 228 92 3 -3 6 0 6 6 0 7 5 12 11 12 6 0 68 25 137 56 70 31 132 57 137
58 6 1 33 12 60 25 77 35 99 44 270 117 88 37 176 78 196 90 178 110 83 380
-126 361 -22 -2 -50 -9 -62 -15 -13 -7 -23 -10 -23 -7 0 3 -10 -1 -22 -9 -12
-9 -30 -16 -40 -16 -10 0 -18 -4 -18 -9 0 -5 -10 -11 -23 -15 -13 -3 -41 -13
-63 -23 -21 -9 -42 -16 -46 -15 -5 1 -8 -3 -8 -8 0 -6 -8 -10 -18 -10 -10 0
-22 -3 -26 -7 -4 -5 -11 -8 -14 -9 -7 -1 -47 -18 -129 -55 -23 -10 -45 -19
-49 -19 -3 0 -32 -13 -63 -29 -31 -15 -60 -29 -66 -31 -5 -1 -21 -7 -35 -12
-14 -6 -36 -14 -50 -20 -14 -5 -27 -9 -30 -10 -3 0 -9 -3 -15 -8 -5 -4 -86
-40 -180 -80 -93 -40 -186 -80 -205 -88 -19 -9 -37 -16 -40 -17 -7 -2 -49 -20
-100 -43 -25 -10 -65 -28 -90 -38 -25 -10 -48 -23 -52 -29 -4 -5 -8 -7 -8 -3
0 7 -114 -40 -154 -63 -10 -6 -27 -12 -39 -14 -11 -3 -42 -16 -68 -30 -27 -14
-52 -26 -56 -26 -11 -2 -41 -14 -98 -40 -27 -12 -52 -23 -55 -24 -3 -1 -22 -9
-44 -18 -21 -9 -40 -17 -42 -17 -2 0 -27 -11 -56 -24 -29 -13 -87 -38 -128
-56 -99 -42 -139 -59 -174 -76 -16 -8 -33 -14 -38 -14 -4 0 -38 -14 -75 -31
-155 -71 -199 -89 -212 -89 -6 0 -11 -5 -11 -12 0 -6 -3 -9 -6 -6 -5 5 -38 -8
-148 -57 -26 -12 -35 -11 -85 12 -31 14 -63 27 -71 30 -8 3 -31 12 -50 21 -19
9 -39 17 -45 18 -5 2 -86 36 -180 77 -194 84 -208 90 -215 92 -3 1 -21 8 -40
17 -19 8 -64 28 -100 43 -36 15 -83 35 -105 45 -23 10 -53 22 -68 25 -15 4
-27 11 -27 16 0 5 -7 9 -15 9 -8 0 -45 14 -82 31 -37 17 -77 35 -88 39 -11 4
-41 17 -67 29 -26 12 -50 21 -53 21 -2 0 -28 11 -57 24 -71 32 -132 59 -138
61 -3 0 -27 11 -55 24 -27 12 -54 24 -60 25 -5 1 -26 10 -45 18 -19 9 -69 30
-110 48 -41 18 -91 39 -110 47 -19 8 -44 19 -55 23 -11 4 -40 17 -65 28 -25
11 -74 32 -110 47 -36 15 -81 34 -100 42 -19 9 -53 23 -75 33 -22 10 -56 24
-75 33 -19 8 -80 34 -135 57 -55 23 -113 48 -130 55 -175 78 -320 134 -351
138 -22 2 -55 -1 -74 -6z"/>
<path d="M5625 11096 c-104 -48 -149 -172 -98 -271 18 -34 97 -105 118 -105 4
0 23 -7 43 -16 46 -21 121 -53 147 -64 11 -5 46 -20 77 -34 31 -14 60 -26 63
-26 3 0 25 -8 48 -19 136 -61 239 -104 245 -101 1 0 15 -6 30 -14 53 -30 231
-104 237 -98 3 3 5 0 5 -6 0 -7 8 -12 18 -12 10 0 22 -3 26 -7 3 -4 14 -8 24
-9 9 -2 18 -8 20 -13 2 -6 9 -11 17 -11 13 0 72 -24 173 -71 35 -16 67 -29 73
-29 5 0 17 -4 27 -10 27 -15 128 -60 135 -60 3 0 34 -13 69 -29 55 -25 91 -40
108 -46 7 -2 78 -33 115 -50 17 -7 75 -32 130 -55 176 -74 222 -94 357 -154
32 -14 69 -28 83 -32 14 -3 25 -11 25 -17 0 -6 3 -8 6 -5 4 5 114 -39 229 -92
21 -10 97 -42 105 -45 11 -4 70 -28 160 -67 52 -22 104 -44 115 -48 80 -33
138 -32 220 5 27 13 111 49 185 80 74 31 163 70 198 86 35 16 66 29 68 29 3 0
26 9 52 21 89 40 107 48 172 75 36 14 83 35 105 45 57 26 438 190 450 193 6 2
28 11 50 21 22 11 42 19 45 20 13 4 71 29 119 52 30 14 59 26 65 27 6 1 21 7
33 14 12 7 28 12 36 12 8 0 20 7 27 15 7 9 15 13 18 11 2 -3 14 0 26 6 11 7
23 13 26 13 3 1 21 8 40 17 19 8 80 34 135 58 123 52 180 77 225 98 19 9 40
17 45 18 6 1 42 16 80 34 78 36 115 52 130 56 6 1 57 23 115 49 112 50 152 67
160 70 3 1 14 5 25 9 21 8 25 10 162 70 45 20 85 36 91 36 5 0 33 23 63 50 30
28 51 50 47 50 -4 0 -1 15 6 33 32 84 -10 188 -97 234 -44 23 -132 23 -188 -1
-24 -11 -64 -28 -89 -38 -25 -11 -54 -23 -65 -28 -11 -5 -40 -18 -65 -29 -25
-10 -71 -31 -104 -45 -32 -14 -65 -26 -72 -26 -8 0 -14 -5 -14 -11 0 -5 -4 -7
-10 -4 -5 3 -10 1 -10 -4 0 -6 -3 -10 -7 -10 -5 1 -11 0 -15 -1 -5 -1 -11 -3
-15 -4 -31 -7 -53 -19 -53 -28 0 -6 -3 -9 -6 -6 -3 4 -29 -4 -57 -16 -81 -35
-91 -39 -99 -38 -5 1 -8 -3 -8 -8 0 -6 -7 -10 -16 -10 -8 0 -39 -11 -67 -24
-132 -62 -186 -84 -191 -78 -3 3 -6 0 -6 -6 0 -7 -5 -12 -12 -12 -6 0 -116
-45 -244 -100 -128 -55 -237 -100 -243 -100 -6 0 -11 -5 -11 -12 0 -6 -3 -8
-6 -5 -4 3 -16 1 -28 -5 -11 -7 -23 -13 -26 -13 -6 -2 -33 -13 -105 -45 -62
-27 -98 -43 -105 -45 -8 -3 -43 -18 -220 -95 -91 -39 -169 -73 -175 -74 -5 -2
-32 -13 -60 -25 -27 -13 -108 -48 -180 -78 -143 -61 -204 -87 -252 -109 -104
-47 -181 -77 -199 -76 -12 0 -36 7 -55 15 -89 41 -224 97 -235 97 -6 0 -17 7
-24 15 -7 8 -16 13 -20 10 -5 -3 -11 -1 -15 5 -3 5 -15 10 -26 10 -10 0 -19 5
-19 10 0 6 -3 9 -7 8 -5 0 -17 2 -28 7 -29 11 -155 65 -190 81 -16 7 -95 40
-175 74 -80 34 -154 65 -165 70 -58 27 -301 132 -310 134 -5 1 -28 11 -50 21
-22 10 -42 19 -45 20 -3 1 -22 9 -44 18 -21 9 -40 17 -42 17 -2 0 -27 11 -56
24 -29 13 -114 49 -188 81 -74 31 -153 65 -175 74 -22 10 -76 33 -120 51 -44
19 -85 37 -91 42 -7 5 -20 10 -30 13 -16 3 -98 37 -242 100 -17 8 -33 15 -35
14 -2 0 -46 19 -172 76 -16 7 -59 25 -95 40 -36 15 -80 34 -97 41 -18 8 -36
15 -40 15 -5 1 -26 10 -48 21 -50 26 -149 33 -190 14z"/>
<path d="M5620 10291 c-66 -31 -111 -98 -111 -164 -1 -118 42 -171 185 -228
44 -18 84 -37 88 -43 4 -6 8 -8 8 -4 0 3 57 -19 128 -49 70 -30 170 -73 222
-95 151 -64 652 -278 685 -293 29 -13 84 -36 95 -40 3 -1 27 -11 53 -23 27
-12 50 -22 53 -22 2 0 27 -11 56 -24 29 -13 114 -50 188 -81 74 -32 141 -62
148 -67 6 -6 12 -8 12 -5 0 6 187 -73 233 -99 15 -8 27 -13 27 -9 0 3 11 -2
25 -11 14 -9 25 -14 25 -11 0 3 27 -8 60 -24 33 -16 67 -29 75 -29 8 0 15 -4
15 -10 0 -5 11 -10 25 -10 14 0 25 -4 25 -10 0 -5 6 -10 13 -10 8 0 27 -6 43
-14 16 -8 74 -33 129 -56 55 -23 118 -50 140 -60 22 -10 69 -30 105 -45 63
-25 85 -35 160 -68 108 -48 182 -42 310 28 14 7 27 13 30 13 3 -1 27 9 54 20
27 12 51 22 53 22 2 0 30 12 61 26 109 50 140 62 146 57 3 -4 6 -2 6 3 0 6 17
16 38 23 20 8 57 23 82 34 25 11 81 35 125 54 115 50 129 56 135 58 3 1 19 7
35 15 77 34 94 40 104 40 6 0 11 5 11 12 0 6 3 8 6 5 4 -4 19 0 33 7 43 23
118 56 124 56 6 0 57 22 164 71 24 10 45 19 47 19 2 0 21 8 42 17 22 9 42 16
47 15 4 -1 7 3 7 8 0 6 5 10 10 10 6 0 26 7 46 15 19 8 35 14 37 14 1 0 43 19
92 41 50 22 95 40 102 40 6 0 13 4 15 10 2 5 12 11 23 13 11 2 38 12 60 22 22
11 42 19 45 20 11 3 49 20 127 56 45 20 84 34 87 31 3 -3 6 0 6 6 0 7 8 12 18
12 10 0 26 6 37 14 11 7 22 14 25 14 8 1 51 18 165 67 158 68 159 68 168 67 4
-1 7 3 7 8 0 5 3 9 8 8 7 -1 27 6 97 37 22 10 42 19 45 20 7 2 45 19 105 45
72 32 99 43 105 45 21 5 80 40 103 60 122 114 50 324 -118 339 -42 4 -89 -7
-150 -34 -22 -10 -89 -40 -150 -65 -129 -55 -153 -65 -220 -96 -27 -12 -59
-24 -69 -26 -11 -2 -27 -10 -36 -18 -9 -8 -22 -15 -28 -15 -6 0 -31 -9 -54
-19 -24 -11 -59 -26 -78 -34 -19 -8 -55 -24 -80 -35 -46 -20 -357 -153 -407
-174 -15 -6 -31 -11 -35 -10 -5 1 -8 -3 -8 -8 0 -6 -4 -10 -9 -10 -5 0 -22 -5
-38 -11 -15 -6 -28 -9 -28 -8 0 2 -13 -4 -30 -14 -30 -16 -142 -67 -149 -67
-2 0 -30 -12 -62 -27 -33 -15 -61 -27 -64 -28 -14 -5 -310 -130 -375 -160
-102 -46 -210 -89 -217 -87 -5 1 -8 -3 -8 -8 0 -6 -4 -10 -9 -10 -8 0 -214
-86 -331 -138 -19 -9 -37 -16 -40 -17 -9 -3 -59 -24 -103 -44 -23 -10 -71 -31
-106 -46 -69 -29 -67 -29 -176 20 -16 7 -64 28 -105 45 -41 17 -88 37 -105 45
-16 7 -75 32 -130 55 -55 23 -118 50 -140 60 -47 21 -119 51 -122 51 -2 0 -36
15 -77 34 -41 18 -77 31 -80 28 -3 -4 -6 -1 -6 5 0 7 -4 12 -10 12 -5 0 -58
21 -117 46 -157 67 -157 67 -165 66 -5 -1 -8 2 -8 8 0 5 -5 10 -12 10 -9 0
-235 93 -373 155 -24 10 -247 105 -340 144 -11 5 -40 18 -65 29 -25 11 -74 32
-110 47 -36 15 -83 36 -105 46 -23 9 -53 21 -68 24 -15 4 -27 11 -27 16 0 5
-5 9 -12 9 -7 0 -71 25 -143 56 -71 31 -143 62 -160 69 -16 7 -51 22 -77 34
-26 11 -50 21 -53 21 -2 0 -35 14 -72 31 -83 38 -95 41 -158 44 -30 2 -64 -4
-85 -14z"/>
<path d="M5350 9653 c-30 -5 -151 -52 -166 -64 -6 -5 -14 -6 -17 -2 -4 3 -7 2
-7 -4 0 -5 -6 -10 -12 -10 -7 0 -48 -17 -91 -37 -42 -20 -79 -36 -82 -36 -2 0
-28 -11 -57 -24 -29 -14 -118 -52 -198 -86 -80 -34 -170 -74 -200 -88 -30 -14
-59 -26 -65 -28 -5 -1 -53 -21 -105 -44 -52 -24 -101 -43 -107 -43 -7 0 -13
-4 -13 -8 0 -6 -29 -20 -50 -24 -3 0 -27 -11 -55 -24 -27 -12 -93 -41 -145
-63 -52 -22 -101 -45 -107 -50 -7 -6 -13 -8 -13 -5 0 3 -35 -10 -77 -29 -43
-20 -97 -44 -120 -55 -24 -10 -45 -19 -48 -19 -2 0 -29 -11 -59 -25 -30 -14
-60 -25 -65 -25 -6 0 -11 -4 -11 -8 0 -5 -6 -9 -12 -9 -7 0 -42 -14 -78 -30
-36 -17 -90 -40 -120 -53 -30 -12 -68 -28 -85 -36 -155 -70 -191 -86 -200 -88
-5 -1 -28 -10 -50 -20 -22 -10 -53 -24 -70 -32 -123 -55 -168 -74 -179 -74 -8
0 -19 -7 -26 -15 -7 -8 -19 -15 -28 -15 -8 0 -33 -9 -56 -20 -92 -43 -199 -90
-208 -90 -12 0 -91 -52 -105 -70 -44 -54 -59 -130 -37 -194 14 -41 54 -96 69
-96 5 0 16 -6 24 -13 9 -8 34 -21 56 -30 22 -8 58 -23 80 -33 22 -10 43 -17
48 -16 4 1 7 -2 7 -8 0 -6 3 -9 8 -9 4 1 10 0 15 -1 4 -1 11 -3 15 -4 5 0 24
-9 43 -18 19 -10 68 -32 109 -49 118 -49 131 -55 193 -83 32 -14 60 -26 63
-26 3 0 26 -9 52 -21 85 -38 29 -14 712 -304 334 -142 373 -159 443 -189 17
-8 61 -27 97 -41 36 -15 81 -34 100 -42 19 -9 53 -23 75 -33 22 -10 61 -27 87
-39 26 -11 50 -21 52 -21 2 0 25 -10 52 -22 27 -12 51 -23 54 -23 12 -4 159
-67 258 -111 29 -13 54 -24 56 -24 2 0 21 -8 42 -17 22 -9 41 -17 44 -18 3 0
28 -11 55 -24 64 -29 144 -61 170 -68 32 -9 102 -4 132 9 15 6 30 12 33 12 3
1 21 9 40 18 19 9 96 42 170 73 74 32 154 66 177 76 41 18 92 40 103 44 3 1
18 7 34 14 16 6 68 28 115 47 47 20 93 40 101 45 8 5 22 12 30 15 32 12 56 23
92 38 20 9 38 16 41 16 3 0 41 16 84 36 43 20 83 37 88 39 6 1 33 12 60 24 28
13 88 39 135 58 47 19 90 38 95 41 6 4 15 7 20 9 6 1 132 54 280 119 149 64
276 117 283 117 6 0 12 4 12 8 0 4 11 10 25 13 14 4 55 20 92 37 36 16 120 53
186 80 67 28 142 60 167 71 168 75 324 140 338 141 6 0 12 4 12 9 0 4 4 8 9 8
5 0 26 8 47 17 22 9 45 16 52 14 6 -1 12 3 12 8 0 6 14 17 30 26 74 38 108
153 71 236 -33 73 -56 91 -191 149 -88 38 -159 70 -250 112 -36 17 -69 31 -75
33 -5 1 -35 13 -65 27 -30 14 -65 28 -77 32 -13 4 -23 11 -23 15 0 4 -6 8 -12
8 -13 0 -27 5 -138 56 -30 14 -111 50 -180 80 -69 30 -150 66 -180 80 -30 13
-170 75 -310 137 -313 137 -338 148 -374 166 -16 8 -35 14 -43 14 -7 0 -13 4
-13 10 0 5 -3 9 -7 8 -5 -1 -18 3 -30 10 -13 7 -23 10 -23 6 0 -3 -6 -2 -12 4
-7 5 -51 26 -98 47 -47 20 -105 47 -130 58 -25 11 -47 21 -50 22 -10 3 -57 24
-115 50 -33 15 -76 34 -95 43 -19 9 -37 16 -40 16 -3 1 -22 9 -42 19 -21 9
-55 25 -75 34 -21 10 -40 18 -43 19 -7 0 -56 23 -235 104 -51 23 -167 63 -169
59 -1 -1 -12 -4 -26 -6z"/>
<path d="M2325 7545 c-55 -31 -97 -101 -99 -163 -1 -48 28 -132 46 -132 5 0 6
-4 3 -10 -3 -5 1 -10 9 -10 9 0 16 -4 16 -8 0 -5 18 -18 40 -31 22 -12 40 -20
40 -17 0 3 17 -3 38 -13 20 -11 82 -38 137 -61 55 -23 118 -50 140 -60 22 -10
69 -30 105 -45 36 -15 83 -35 105 -45 22 -10 83 -36 135 -58 52 -22 113 -48
135 -58 22 -10 43 -18 46 -18 3 -1 28 -11 55 -23 27 -12 80 -36 117 -52 38
-17 70 -31 73 -31 3 0 57 -23 122 -51 158 -69 161 -70 287 -124 158 -68 160
-68 165 -70 3 0 15 -6 28 -13 12 -7 22 -10 22 -6 0 3 6 2 13 -4 6 -5 89 -42
182 -82 94 -39 194 -83 223 -96 29 -13 55 -24 58 -24 3 0 24 -8 47 -19 87 -39
140 -62 420 -180 332 -141 347 -145 454 -98 37 16 79 34 93 40 14 5 27 11 30
11 3 1 21 9 40 18 19 9 80 35 135 58 55 23 118 50 140 60 22 10 69 30 105 45
59 25 97 41 185 80 17 8 143 62 280 120 138 59 264 113 280 120 49 21 70 28
78 27 4 -1 7 2 7 6 0 6 50 30 80 37 5 2 16 6 135 58 150 65 180 78 197 87 10
6 25 10 33 10 8 0 15 4 15 10 0 5 3 9 8 8 4 -2 48 15 97 36 50 21 106 45 125
53 19 8 58 25 85 37 28 13 82 36 120 52 39 15 72 31 75 34 3 3 12 6 20 8 8 2
29 10 45 17 125 56 151 68 160 69 6 1 30 12 55 23 25 11 90 40 145 63 135 57
193 89 200 111 4 11 10 19 15 19 13 0 36 81 34 120 -2 46 -16 79 -49 118 -26
31 -85 70 -85 56 0 -4 -6 -2 -13 4 -23 19 -110 4 -197 -33 -123 -53 -134 -58
-140 -60 -3 -1 -22 -9 -42 -18 -21 -9 -55 -24 -75 -33 -21 -9 -51 -22 -68 -29
-16 -8 -127 -55 -245 -106 -118 -50 -219 -95 -225 -100 -5 -5 -15 -9 -23 -9
-7 0 -32 -9 -55 -19 -118 -53 -397 -171 -406 -171 -6 0 -11 -4 -11 -10 0 -5
-6 -10 -14 -10 -12 0 -41 -12 -161 -65 -16 -7 -47 -19 -67 -26 -21 -7 -38 -17
-38 -21 0 -4 -6 -8 -13 -8 -12 0 -63 -21 -232 -95 -16 -7 -75 -32 -130 -55
-147 -62 -155 -66 -216 -93 -30 -14 -77 -35 -105 -45 -27 -11 -79 -34 -117
-51 -37 -17 -70 -31 -74 -31 -3 0 -24 -9 -47 -19 -23 -11 -95 -43 -161 -71
l-119 -51 -76 31 c-41 18 -79 36 -84 41 -6 5 -15 9 -22 9 -6 0 -33 10 -60 22
-27 12 -51 23 -54 23 -9 3 -61 25 -116 50 -30 14 -57 25 -59 25 -2 0 -28 11
-57 24 -29 13 -161 70 -293 126 -132 56 -259 111 -282 121 -23 11 -44 19 -46
19 -3 0 -31 12 -63 27 -33 15 -61 27 -64 28 -9 3 -60 25 -273 116 -243 105
-260 112 -267 114 -9 3 -54 22 -100 43 -25 10 -79 34 -120 52 -41 17 -94 41
-117 51 -24 10 -45 19 -48 19 -3 0 -24 9 -48 19 -130 59 -284 124 -294 124 -7
0 -13 4 -13 9 0 4 -7 8 -15 8 -9 0 -27 7 -40 16 -14 9 -25 14 -25 10 0 -3 -16
3 -35 14 -20 11 -40 20 -45 20 -5 0 -38 14 -72 30 -35 17 -70 32 -78 33 -8 2
-19 5 -25 9 -25 15 -121 5 -160 -17z"/>
<path d="M2341 6751 c-39 -18 -91 -67 -91 -85 0 -6 -5 -17 -11 -23 -21 -21
-15 -114 11 -165 13 -26 26 -45 31 -43 4 3 10 -2 13 -10 6 -16 62 -44 231
-115 55 -23 119 -51 142 -61 23 -10 44 -19 46 -19 3 0 31 -12 63 -27 33 -15
61 -28 64 -28 3 -1 23 -9 45 -19 68 -30 90 -39 96 -40 3 -1 33 -13 65 -28 72
-32 97 -42 107 -40 4 1 7 -3 7 -8 0 -6 5 -10 10 -10 6 0 27 -7 48 -16 20 -8
38 -15 40 -14 1 0 15 -6 30 -14 28 -15 52 -25 162 -71 36 -15 85 -36 110 -47
25 -11 54 -24 65 -28 77 -32 249 -106 290 -125 28 -12 72 -30 98 -40 26 -10
50 -22 53 -26 3 -5 11 -9 19 -9 7 0 44 -14 81 -31 37 -17 72 -32 78 -34 6 -1
34 -12 61 -24 28 -13 66 -30 85 -38 19 -9 40 -17 45 -18 6 -2 41 -17 77 -34
37 -17 69 -31 72 -31 3 0 29 -11 58 -24 46 -20 97 -42 213 -91 17 -7 53 -23
80 -35 64 -28 88 -39 210 -90 103 -43 123 -51 165 -67 21 -9 120 -11 128 -3 1
1 5 3 10 5 11 3 42 16 102 43 30 14 60 26 65 27 6 2 33 12 60 25 61 27 100 43
145 63 19 8 55 24 80 35 25 11 106 45 180 76 74 32 153 66 175 75 22 10 101
44 175 75 74 32 153 66 175 75 22 10 164 71 315 136 151 64 293 125 315 135
133 60 310 133 310 129 0 -2 14 4 30 14 48 27 236 107 251 107 8 0 14 5 14 12
0 6 3 9 6 6 3 -3 56 16 117 44 110 48 135 59 180 77 12 6 53 24 90 40 38 17
71 31 75 31 17 0 116 57 139 79 66 65 77 188 22 247 -10 11 -19 25 -19 30 0
15 -91 56 -130 59 -34 2 -90 -12 -150 -38 -100 -44 -134 -59 -240 -103 -63
-27 -117 -51 -120 -54 -3 -3 -12 -6 -20 -8 -8 -2 -28 -10 -45 -17 -100 -45
-146 -65 -149 -65 -2 0 -30 -12 -62 -27 -33 -15 -61 -27 -64 -28 -3 -1 -18 -8
-35 -15 -16 -7 -34 -14 -40 -16 -5 -1 -53 -21 -105 -44 -107 -47 -143 -63
-150 -65 -3 0 -20 -9 -37 -18 -18 -10 -33 -16 -33 -13 0 2 -27 -9 -60 -25 -33
-16 -67 -29 -75 -29 -8 0 -15 -4 -15 -10 0 -5 -8 -10 -18 -10 -10 0 -22 -3
-26 -7 -4 -5 -11 -8 -14 -8 -4 -1 -29 -11 -57 -24 -27 -12 -71 -31 -97 -42
-26 -10 -55 -23 -65 -28 -37 -20 -771 -331 -781 -331 -6 0 -12 -4 -14 -10 -1
-5 -12 -11 -23 -13 -11 -2 -40 -13 -65 -24 -89 -41 -379 -163 -387 -163 -5 0
-33 11 -61 25 -29 14 -54 25 -57 25 -5 0 -172 71 -260 111 -27 12 -54 23 -60
24 -5 2 -35 14 -65 27 -30 14 -111 49 -180 78 -161 68 -176 74 -232 99 -54 24
-101 44 -108 45 -3 1 -31 14 -64 29 -32 15 -60 27 -63 27 -5 0 -111 46 -200
86 -28 13 -54 24 -57 24 -2 0 -25 9 -50 20 -26 11 -48 19 -51 19 -3 1 -20 8
-38 18 -17 9 -34 18 -37 18 -3 0 -27 11 -54 23 -27 12 -55 22 -62 22 -8 0 -14
5 -14 10 0 6 -6 10 -13 10 -11 0 -180 70 -302 125 -25 11 -278 119 -400 171
-16 6 -33 12 -38 13 -4 0 -20 7 -35 15 -15 8 -43 21 -62 29 -19 8 -55 24 -80
34 -51 23 -83 36 -90 37 -3 1 -16 8 -30 16 -14 7 -27 13 -30 13 -3 -1 -25 8
-50 20 -58 26 -144 30 -189 8z"/>
<path d="M2348 5951 c-81 -37 -123 -103 -121 -187 1 -58 20 -101 61 -139 29
-28 51 -39 207 -104 55 -23 114 -48 130 -56 74 -33 149 -65 165 -70 6 -2 34
-14 140 -60 107 -46 134 -58 140 -60 7 -2 43 -18 105 -45 68 -30 99 -43 105
-45 3 -1 22 -9 44 -18 21 -9 42 -17 47 -17 5 0 9 -5 9 -11 0 -5 4 -8 9 -5 4 3
17 -1 27 -9 10 -8 25 -15 32 -15 7 0 32 -9 57 -20 106 -47 135 -60 220 -95 50
-20 109 -46 132 -56 40 -18 92 -40 103 -44 3 -1 27 -11 53 -23 27 -12 50 -22
53 -22 2 0 27 -11 56 -24 29 -13 224 -97 433 -186 209 -89 396 -169 415 -177
19 -8 49 -22 65 -31 17 -9 30 -15 30 -13 0 3 25 -7 160 -64 97 -41 116 -46
165 -42 32 2 81 16 115 33 33 15 65 29 70 30 8 2 423 179 500 214 73 32 136
60 139 60 2 0 30 12 62 27 33 15 61 27 64 28 8 3 42 17 85 35 22 10 69 30 105
45 36 15 84 37 107 47 23 11 46 20 50 20 4 0 17 5 28 11 11 6 22 12 25 12 3 1
23 9 45 19 22 10 72 32 110 48 39 16 81 35 95 40 14 6 27 12 30 13 3 1 31 13
64 28 32 15 60 27 62 27 2 0 26 10 52 21 26 12 61 27 77 34 17 7 80 34 140 61
61 26 116 47 123 47 6 0 12 4 12 8 0 4 10 11 23 15 22 6 333 138 414 175 23
10 44 19 47 19 2 0 39 16 80 35 42 19 78 35 80 35 2 0 25 10 52 22 27 12 51
22 54 23 3 0 30 12 61 26 115 54 159 133 136 249 -11 54 -80 123 -138 136 -36
9 -73 11 -84 5 -5 -3 -19 -7 -30 -8 -11 -2 -29 -7 -40 -12 -78 -37 -142 -64
-152 -64 -7 0 -13 -4 -13 -8 0 -6 -31 -20 -55 -23 -5 -1 -26 -9 -45 -18 -19
-9 -57 -26 -85 -38 -27 -12 -63 -28 -79 -36 -16 -8 -35 -14 -43 -14 -7 0 -13
-4 -13 -10 0 -5 -3 -9 -7 -8 -7 2 -137 -49 -182 -72 -9 -4 -27 -12 -41 -18
-14 -6 -45 -20 -70 -30 -50 -22 -296 -127 -347 -149 -18 -7 -36 -14 -40 -14
-5 0 -12 -4 -18 -9 -5 -4 -50 -24 -100 -45 -49 -20 -118 -50 -153 -66 -35 -16
-65 -29 -66 -29 -2 0 -19 -6 -37 -14 -19 -8 -38 -14 -42 -14 -4 0 -18 -7 -30
-14 -12 -8 -53 -27 -92 -43 -38 -15 -103 -43 -143 -62 -41 -18 -76 -33 -79
-33 -3 0 -19 -7 -36 -15 -126 -58 -853 -365 -866 -365 -9 0 -38 11 -66 25 -27
13 -53 25 -56 25 -4 0 -28 10 -55 22 -27 12 -52 21 -56 20 -5 -1 -8 2 -8 8 0
6 -3 9 -7 8 -5 -1 -20 4 -35 10 -55 23 -224 95 -263 112 -22 10 -85 36 -140
60 -55 23 -113 48 -130 55 -24 12 -158 69 -485 208 -14 6 -27 11 -30 12 -11 4
-63 26 -103 44 -53 24 -120 54 -127 56 -23 8 -53 21 -95 40 -27 13 -72 33
-100 43 -27 11 -68 28 -90 38 -22 10 -42 18 -45 19 -3 0 -15 6 -26 13 -12 6
-24 8 -28 5 -3 -3 -6 -1 -6 5 0 7 -7 12 -16 12 -16 0 -84 29 -94 39 -3 4 -12
7 -20 9 -8 2 -32 11 -55 21 -22 10 -61 27 -87 37 -27 10 -48 22 -48 26 0 4 -7
5 -15 2 -8 -4 -15 -1 -15 5 0 6 -3 10 -7 9 -5 -1 -30 8 -57 20 -27 12 -50 22
-53 22 -2 0 -25 9 -51 21 -143 64 -204 89 -217 89 -7 0 -18 7 -25 15 -7 9 -15
13 -18 11 -2 -3 -19 2 -36 11 -17 10 -33 18 -36 18 -3 1 -18 7 -35 14 -16 6
-37 14 -45 17 -35 14 -107 11 -142 -5z"/>
<path d="M8559 5330 c-24 -10 -57 -23 -74 -30 -16 -7 -32 -14 -35 -14 -3 -1
-9 -4 -15 -7 -5 -4 -50 -23 -100 -43 -49 -21 -97 -42 -105 -47 -8 -5 -22 -12
-30 -15 -40 -16 -160 -67 -250 -107 -30 -13 -100 -43 -155 -66 -55 -23 -128
-55 -163 -72 -35 -16 -65 -29 -68 -29 -2 0 -23 -9 -47 -19 -23 -11 -73 -33
-110 -50 -38 -17 -71 -31 -74 -31 -3 0 -39 -16 -80 -35 -41 -19 -77 -35 -79
-35 -2 0 -23 -9 -47 -19 -23 -11 -80 -36 -127 -56 -123 -53 -148 -64 -220 -97
-36 -17 -69 -31 -75 -33 -14 -3 -48 -17 -138 -58 -42 -20 -79 -37 -82 -37 -2
-1 -14 -4 -25 -7 -11 -3 -20 -9 -20 -12 0 -4 -6 -8 -12 -8 -11 0 -138 -54
-323 -138 -27 -12 -67 -28 -87 -36 -21 -7 -38 -16 -38 -20 0 -4 -6 -6 -12 -6
-7 1 -35 -9 -63 -22 -123 -58 -161 -74 -172 -74 -7 0 -13 -5 -13 -10 0 -6 -3
-8 -6 -5 -10 10 -158 -69 -185 -98 -43 -48 -67 -137 -45 -172 4 -7 5 -12 1
-12 -9 0 25 -61 49 -86 25 -26 66 -48 201 -104 55 -23 124 -53 153 -66 29 -13
55 -24 57 -24 3 0 39 -16 81 -35 41 -19 78 -35 81 -35 4 0 68 -27 178 -75 122
-54 342 -147 350 -149 6 -1 17 -6 25 -11 8 -5 20 -10 25 -11 6 -1 51 -20 100
-41 124 -54 129 -56 138 -55 4 1 7 -2 7 -8 0 -6 3 -9 8 -8 8 2 -27 16 372
-155 14 -6 27 -11 30 -11 5 -1 115 -48 155 -67 53 -24 231 -101 240 -103 6 -1
26 -9 45 -18 19 -9 96 -41 170 -73 159 -67 176 -74 254 -110 33 -15 64 -28 70
-29 6 -2 27 -9 46 -18 238 -105 233 -103 305 -103 53 1 80 6 110 23 22 12 43
22 47 22 3 0 28 10 55 22 26 12 50 22 53 23 9 3 64 26 97 41 82 35 108 47 268
114 94 39 186 79 205 88 19 9 37 17 40 17 7 2 15 6 213 91 92 40 167 69 167
66 0 -4 4 -2 8 4 4 5 34 21 67 34 58 22 134 54 166 70 9 5 54 24 100 43 46 19
107 45 134 58 28 12 56 23 64 25 7 1 32 12 55 23 45 22 138 64 146 65 7 1 77
31 140 59 106 47 180 75 180 69 0 -4 4 -2 8 4 5 9 222 106 242 109 3 1 31 13
63 28 32 15 60 27 62 27 2 0 29 11 59 25 30 14 57 25 60 25 4 0 25 9 49 19 23
11 72 33 108 49 109 49 159 112 159 204 0 51 -32 121 -68 148 -15 11 -32 24
-39 30 -7 5 -15 10 -19 10 -3 0 -20 6 -37 14 -18 8 -126 56 -242 106 -274 120
-258 113 -350 155 -84 39 -127 58 -135 59 -3 1 -23 9 -45 20 -43 20 -91 41
-170 77 -100 44 -120 53 -125 54 -3 0 -23 9 -45 19 -93 43 -145 66 -220 99
-44 19 -147 65 -230 102 -82 37 -154 68 -160 69 -5 1 -24 10 -41 19 -17 9 -34
13 -38 10 -3 -4 -6 -1 -6 5 0 7 -4 12 -10 12 -5 0 -40 14 -77 31 -38 17 -99
44 -138 61 -192 84 -230 101 -313 139 -35 16 -65 29 -68 29 -2 0 -43 18 -90
40 -47 22 -88 40 -90 40 -4 0 -40 16 -159 70 -152 70 -203 79 -276 50z"/>
<path d="M5647 3258 c-50 -10 -89 -31 -107 -58 -8 -13 -20 -28 -26 -34 -14
-15 -26 -66 -26 -112 0 -49 58 -155 76 -137 3 4 6 1 6 -6 0 -7 26 -23 58 -37
31 -14 66 -29 77 -34 29 -14 349 -150 365 -155 6 -2 74 -32 120 -52 19 -8 49
-22 65 -30 17 -8 37 -16 45 -18 8 -2 36 -13 62 -25 26 -11 49 -20 50 -20 2 1
26 -10 54 -24 29 -14 55 -26 59 -26 4 0 36 -13 72 -30 35 -16 66 -30 69 -30 2
0 23 -9 47 -19 23 -11 92 -40 152 -66 61 -26 124 -53 140 -61 17 -7 111 -47
210 -89 99 -42 199 -85 222 -96 24 -10 45 -19 48 -19 3 0 34 -13 68 -29 99
-46 221 -96 230 -93 4 1 7 -2 7 -8 0 -5 6 -10 14 -10 7 0 40 -12 72 -26 33
-14 73 -32 89 -39 17 -7 46 -20 65 -28 57 -25 114 -50 125 -53 9 -3 294 -125
370 -158 82 -37 140 -37 228 0 102 43 112 47 117 49 3 0 25 10 50 22 25 12
122 53 215 93 94 39 195 83 225 97 30 14 60 26 65 27 6 1 26 9 45 18 36 17
111 50 120 53 3 1 21 8 40 17 19 8 96 41 170 73 133 56 196 84 255 110 17 7
59 25 95 40 36 15 93 40 128 56 35 16 65 29 67 29 3 0 34 14 70 30 36 17 68
30 72 30 3 0 27 10 52 21 25 12 55 25 66 30 31 12 105 44 160 69 27 12 54 23
60 24 5 1 36 14 69 29 32 15 60 27 62 27 2 0 34 14 71 31 38 17 89 39 114 49
26 10 66 28 90 39 24 11 94 41 154 67 61 25 128 54 150 64 22 10 60 26 85 37
57 25 106 66 127 107 35 66 18 171 -35 226 -27 27 -86 58 -104 55 -10 -2 -20
1 -23 6 -3 4 -17 4 -31 -1 -13 -5 -28 -9 -32 -9 -4 1 -10 0 -14 -1 -5 -1 -11
-3 -15 -4 -5 -1 -25 -10 -47 -19 -21 -9 -40 -17 -42 -17 -1 0 -33 -14 -71 -31
-102 -45 -89 -40 -228 -99 -11 -4 -36 -15 -56 -24 -19 -8 -73 -31 -119 -51
-46 -20 -98 -42 -114 -49 -17 -8 -53 -23 -81 -34 -27 -11 -72 -31 -100 -43
-27 -13 -52 -24 -55 -24 -5 -1 -37 -16 -106 -47 -22 -10 -43 -18 -46 -18 -4 0
-35 -13 -70 -29 -35 -16 -108 -48 -163 -71 -113 -47 -132 -56 -228 -99 -38
-17 -71 -31 -74 -31 -3 0 -19 -6 -36 -14 -122 -56 -166 -73 -171 -68 -3 3 -6
0 -6 -6 0 -7 -7 -12 -15 -12 -8 0 -23 -4 -33 -9 -26 -14 -93 -44 -252 -111
-80 -34 -158 -67 -175 -74 -16 -8 -64 -28 -105 -46 -41 -17 -89 -38 -105 -45
-17 -8 -104 -45 -195 -84 -157 -67 -165 -69 -194 -56 -47 21 -110 48 -121 51
-5 1 -71 29 -145 62 -171 75 -174 75 -182 74 -3 -1 -12 5 -18 13 -7 8 -18 15
-25 15 -8 0 -35 10 -62 22 -26 12 -50 22 -53 23 -17 5 -89 37 -175 75 -63 28
-97 42 -110 45 -5 2 -40 17 -77 34 -36 17 -69 31 -72 31 -3 0 -29 11 -58 24
-83 37 -113 49 -118 51 -3 0 -21 8 -40 17 -19 8 -71 31 -115 49 -44 18 -84 37
-90 41 -5 4 -17 8 -27 8 -10 0 -18 5 -18 12 0 6 -3 8 -6 5 -4 -4 -19 0 -33 8
-14 7 -87 39 -161 70 -74 32 -148 63 -165 70 -16 8 -95 41 -175 75 -177 76
-194 83 -200 85 -7 2 -78 33 -115 50 -16 7 -75 32 -130 55 -55 23 -113 48
-130 55 -16 8 -61 28 -99 44 -38 17 -75 31 -82 31 -8 0 -14 4 -14 8 0 5 -6 9
-12 10 -16 1 -53 10 -53 12 0 6 -46 5 -78 -2z"/>
<path d="M5665 2459 c-76 -12 -129 -49 -159 -112 -20 -43 -23 -114 -7 -145 6
-11 8 -22 4 -25 -3 -4 2 -9 11 -13 9 -3 16 -12 16 -20 0 -27 93 -73 405 -204
11 -4 36 -15 55 -23 51 -22 131 -57 160 -70 14 -5 28 -10 33 -9 4 1 7 -3 7
-10 0 -6 3 -8 7 -5 3 4 12 2 20 -4 7 -6 13 -8 13 -4 0 4 12 0 26 -10 14 -9 42
-22 62 -29 20 -8 62 -25 92 -39 30 -13 84 -37 120 -52 36 -15 79 -33 95 -41
17 -7 59 -25 95 -39 36 -15 83 -35 105 -45 22 -10 85 -37 140 -60 55 -23 118
-50 140 -60 22 -10 85 -37 140 -60 55 -23 118 -50 140 -60 38 -17 137 -59 200
-85 62 -26 305 -130 445 -190 528 -229 553 -238 610 -238 53 1 86 12 245 83
22 10 69 30 105 45 36 15 90 38 120 52 30 14 77 34 104 45 52 20 122 51 170
74 16 8 33 14 38 14 7 0 46 17 184 81 22 11 43 19 47 19 3 0 30 11 59 24 52
24 165 73 224 97 16 7 32 12 37 11 4 -1 7 3 7 8 0 5 3 9 8 8 4 -1 20 4 36 11
40 16 160 69 216 94 25 11 51 20 58 20 6 0 12 4 12 8 0 5 22 14 45 18 3 0 28
12 55 26 27 14 51 25 52 24 3 -2 27 9 123 51 11 5 51 23 88 39 38 17 71 31 73
31 5 0 48 19 129 55 17 7 37 15 45 17 8 2 17 5 20 8 3 3 25 14 50 24 98 41
108 45 243 105 37 16 67 27 67 24 0 -3 6 -1 13 4 6 6 73 36 147 68 213 90 241
106 275 159 21 32 24 42 30 101 4 44 -19 106 -54 142 -66 69 -152 74 -286 18
-49 -20 -94 -40 -100 -43 -5 -4 -12 -7 -15 -8 -6 -1 4 3 -295 -124 -132 -56
-265 -114 -295 -127 -67 -30 -102 -45 -115 -49 -10 -2 -150 -63 -245 -106 -25
-11 -45 -19 -45 -18 0 2 -19 -7 -42 -19 -23 -11 -49 -21 -58 -21 -8 0 -15 -4
-15 -10 0 -5 -6 -10 -14 -10 -7 0 -44 -14 -82 -31 -38 -16 -85 -37 -104 -45
-19 -9 -44 -19 -55 -24 -18 -9 -478 -205 -552 -237 -18 -7 -34 -12 -36 -11 -2
2 -11 -3 -20 -11 -10 -7 -17 -10 -17 -5 0 5 -4 4 -8 -1 -4 -6 -117 -57 -252
-114 -135 -58 -272 -117 -305 -131 -131 -58 -103 -60 -260 10 -40 18 -491 210
-543 232 -15 6 -30 11 -34 10 -5 -1 -8 2 -8 8 0 6 -3 9 -7 8 -5 -1 -24 5 -43
14 -19 8 -75 32 -125 53 -49 20 -112 48 -140 60 -27 13 -88 39 -135 59 -47 19
-103 43 -125 52 -22 10 -42 18 -45 19 -5 2 -73 30 -105 45 -109 48 -212 92
-220 94 -5 1 -30 12 -55 23 -25 11 -106 47 -180 78 -74 32 -141 62 -147 67 -7
6 -13 8 -13 5 0 -5 -114 43 -235 98 -16 7 -53 23 -81 34 -54 21 -108 44 -208
89 -32 15 -62 27 -65 28 -3 0 -24 9 -46 19 -22 10 -42 19 -45 20 -3 1 -18 7
-35 14 -100 43 -152 56 -190 50z"/>
<path d="M5605 1643 c-105 -54 -145 -165 -96 -267 20 -40 90 -106 113 -106 4
0 31 -11 60 -24 29 -13 98 -43 153 -66 55 -24 116 -50 135 -58 19 -9 37 -16
40 -17 3 0 16 -7 30 -15 14 -7 27 -13 30 -13 7 1 41 -13 93 -36 23 -10 63 -28
89 -40 26 -11 49 -21 51 -21 3 0 31 -12 63 -27 33 -15 61 -27 64 -28 3 -1 22
-9 44 -18 21 -9 40 -17 42 -17 2 0 32 -13 66 -28 35 -16 110 -48 168 -73 58
-24 107 -46 110 -49 3 -3 10 -6 15 -7 9 -1 296 -123 400 -168 22 -10 42 -19
45 -20 13 -5 64 -27 104 -45 25 -11 47 -20 50 -20 3 0 31 -12 63 -26 32 -15
74 -33 93 -41 63 -27 105 -45 125 -53 11 -4 40 -17 65 -28 25 -11 74 -32 110
-47 112 -46 134 -56 165 -73 17 -9 32 -15 35 -15 3 1 19 -5 35 -12 17 -8 95
-42 175 -75 80 -34 165 -71 190 -82 72 -34 157 -29 253 16 43 20 84 36 91 36
6 0 18 6 25 12 6 7 16 14 22 14 5 1 11 3 14 4 3 1 8 3 13 5 4 1 25 10 47 20
22 10 42 19 45 20 3 1 23 9 45 19 51 22 89 39 95 41 16 5 433 185 470 203 19
9 37 16 40 17 7 0 311 131 388 166 35 16 65 29 67 29 2 0 25 10 52 22 26 11
53 22 58 24 6 1 53 21 105 45 52 23 101 42 108 42 6 0 12 3 12 7 0 4 19 13 43
20 23 8 44 17 47 20 6 6 159 70 175 73 6 1 13 6 16 10 3 5 12 9 20 11 8 1 30
9 49 18 19 9 69 31 110 48 41 18 95 42 120 53 25 11 51 20 58 20 6 0 12 4 12
9 0 4 5 8 10 8 6 0 58 21 117 46 97 41 127 54 228 99 17 7 65 27 108 45 119
49 168 106 172 200 5 101 -70 190 -169 203 -55 7 -172 -30 -281 -90 -16 -10
-31 -16 -33 -15 -1 2 -24 -7 -50 -18 -26 -12 -56 -23 -66 -26 -11 -2 -23 -9
-26 -15 -4 -6 -11 -10 -16 -10 -17 1 -74 -23 -74 -31 0 -4 -3 -7 -7 -6 -5 2
-28 -6 -53 -16 -25 -11 -47 -20 -50 -21 -3 0 -21 -8 -40 -17 -79 -37 -256
-110 -267 -111 -7 0 -13 -4 -13 -8 0 -4 -20 -13 -45 -20 -25 -7 -45 -16 -45
-20 0 -4 -10 -9 -23 -13 -13 -3 -45 -15 -73 -28 -27 -12 -51 -23 -54 -23 -3 0
-27 -11 -55 -24 -27 -12 -104 -45 -170 -73 -66 -28 -139 -59 -162 -69 -41 -19
-92 -40 -103 -44 -16 -5 -71 -29 -105 -45 -22 -10 -105 -46 -185 -80 -80 -34
-164 -70 -187 -81 -23 -10 -44 -19 -47 -19 -3 0 -30 -11 -61 -25 -135 -62
-450 -195 -462 -195 -7 0 -13 -4 -13 -9 0 -5 -11 -12 -25 -15 -14 -4 -49 -17
-78 -30 -96 -43 -95 -43 -287 47 -25 11 -47 21 -50 22 -13 4 -48 18 -80 32
-19 8 -82 35 -140 60 -58 25 -118 51 -135 58 -54 24 -210 90 -215 91 -3 0 -30
12 -60 26 -30 13 -95 42 -145 62 -49 21 -103 44 -120 51 -16 8 -124 54 -240
103 -115 49 -228 98 -250 107 -22 10 -42 19 -45 20 -6 2 -18 7 -165 69 -60 26
-119 51 -130 56 -73 35 -208 90 -218 90 -7 0 -18 5 -25 12 -6 6 -17 13 -24 14
-7 1 -71 28 -143 59 -71 30 -157 68 -190 82 -33 14 -69 29 -80 34 -11 4 -42
18 -70 30 -27 11 -66 28 -85 36 -19 8 -44 19 -55 25 -32 18 -136 18 -170 1z"/>
</g>
</svg>
