<?xml version="1.0" encoding="UTF-8" standalone="no"?>
<svg
   xmlns:dc="http://purl.org/dc/elements/1.1/"
   xmlns:cc="http://creativecommons.org/ns#"
   xmlns:rdf="http://www.w3.org/1999/02/22-rdf-syntax-ns#"
   xmlns:svg="http://www.w3.org/2000/svg"
   xmlns="http://www.w3.org/2000/svg"
   id="svg2"
   viewBox="0 0 239.59877 350.30429"
   height="350.30429"
   width="239.59877"
   y="0px"
   x="0px"
   preserveAspectRatio="none"
   version="1.1">
  <metadata
     id="metadata18">
    <rdf:RDF>
      <cc:Work
         rdf:about="">
        <dc:format>image/svg+xml</dc:format>
        <dc:type
           rdf:resource="http://purl.org/dc/dcmitype/StillImage" />
        <dc:title></dc:title>
      </cc:Work>
    </rdf:RDF>
  </metadata>
  <defs
     id="defs4">
    <g
       id="Layer0_0_FILL">
      <path
         style="fill:#000000;stroke:none"
         id="path7"
         d="M 133,96.5 101.6,170.05 133,243.55 164.4,170 133,96.5 m 108.5,229.05 31.4,-73.55 -31.4,-73.5 -31.4,73.55 31.4,73.5 M 380.9,170 349.5,96.5 l -31.4,73.55 31.4,73.5 31.4,-73.55 z" />
    </g>
    <path
       style="fill:none;stroke:#000000;stroke-width:10;stroke-linecap:round;stroke-linejoin:round"
       d="m 409.5,96.5 31.4,73.5 -31.4,73.55 m -20,-147.05 31.4,73.5 -31.4,73.55 m -71.4,-73.5 31.4,-73.55 31.4,73.5 -31.4,73.55 -31.4,-73.5 z M 369.5,96.5 400.9,170 369.5,243.55 M 193,96.5 224.4,170 193,243.55 M 173,96.5 204.4,170 173,243.55 M 101.6,170.05 133,96.5 164.4,170 133,243.55 101.6,170.05 Z m 108.5,82 31.4,-73.55 31.4,73.5 -31.4,73.55 -31.4,-73.5 z m 51.4,-73.55 31.4,73.5 -31.4,73.55 m 20,-147.05 31.4,73.5 -31.4,73.55 M 153,96.5 184.4,170 153,243.55 m 148.5,-65.05 31.4,73.5 -31.4,73.55"
       id="Layer0_0_1_STROKES" />
  </defs>
  <g
     transform="translate(-151.07801,-35.726636)"
     id="g4211">
    <g
       transform="matrix(0,1,-1,0,481.77078,-59.984058)"
       id="g4228">
      <g
         id="g4174"
         transform="translate(-216.40889,-0.3136345)">
        <path
           style="fill:none;fill-rule:evenodd;stroke:#e74c3c;stroke-width:10;stroke-linecap:round;stroke-linejoin:round;stroke-miterlimit:4;stroke-dasharray:none;stroke-opacity:1"
           d="m 409.49782,96.473119 31.4745,73.318001 -31.57716,73.85807"
           id="path4176" />
        <path
           id="path4178"
           d="m 389.42511,96.473119 31.4745,73.318001 -31.57716,73.85807"
           style="fill:none;fill-rule:evenodd;stroke:#e74c3c;stroke-width:10;stroke-linecap:round;stroke-linejoin:round;stroke-miterlimit:4;stroke-dasharray:none;stroke-opacity:1" />
        <path
           style="fill:none;fill-rule:evenodd;stroke:#e74c3c;stroke-width:10;stroke-linecap:round;stroke-linejoin:round;stroke-miterlimit:4;stroke-dasharray:none;stroke-opacity:1"
           d="m 369.3524,96.473119 31.4745,73.318001 -31.57716,73.85807"
           id="path4180" />
        <path
           d="m 349.33385,243.88442 -32.18516,-74.0933 m 0,0 32.25859,-72.925956 31.34691,73.396406 -31.42034,73.62285"
           style="fill:#e74c3c;fill-opacity:1;fill-rule:evenodd;stroke:#e74c3c;stroke-width:10;stroke-linecap:round;stroke-linejoin:round;stroke-miterlimit:4;stroke-dasharray:none;stroke-opacity:1"
           id="path4184" />
      </g>
      <g
         transform="translate(-107.73954,81.742815)"
         id="g4191">
        <path
           id="path4193"
           d="m 409.49782,96.473119 31.4745,73.318001 -31.57716,73.85807"
           style="fill:none;fill-rule:evenodd;stroke:#e74c3c;stroke-width:10;stroke-linecap:round;stroke-linejoin:round;stroke-miterlimit:4;stroke-dasharray:none;stroke-opacity:1" />
        <path
           style="fill:none;fill-rule:evenodd;stroke:#e74c3c;stroke-width:10;stroke-linecap:round;stroke-linejoin:round;stroke-miterlimit:4;stroke-dasharray:none;stroke-opacity:1"
           d="m 389.42511,96.473119 31.4745,73.318001 -31.57716,73.85807"
           id="path4195" />
        <path
           id="path4197"
           d="m 369.3524,96.473119 31.4745,73.318001 -31.57716,73.85807"
           style="fill:none;fill-rule:evenodd;stroke:#e74c3c;stroke-width:10;stroke-linecap:round;stroke-linejoin:round;stroke-miterlimit:4;stroke-dasharray:none;stroke-opacity:1" />
        <path
           id="path4199"
           style="fill:#e74c3c;fill-opacity:1;fill-rule:evenodd;stroke:#e74c3c;stroke-width:10;stroke-linecap:round;stroke-linejoin:round;stroke-miterlimit:4;stroke-dasharray:none;stroke-opacity:1"
           d="m 349.33385,243.88442 -32.18516,-74.0933 m 0,0 32.25859,-72.925956 31.34691,73.396406 -31.42034,73.62285" />
      </g>
      <g
         id="g4201"
         transform="translate(0.0427155,0.1299155)">
        <path
           style="fill:none;fill-rule:evenodd;stroke:#e74c3c;stroke-width:10;stroke-linecap:round;stroke-linejoin:round;stroke-miterlimit:4;stroke-dasharray:none;stroke-opacity:1"
           d="m 409.49782,96.473119 31.4745,73.318001 -31.57716,73.85807"
           id="path4203" />
        <path
           id="path4205"
           d="m 389.42511,96.473119 31.4745,73.318001 -31.57716,73.85807"
           style="fill:none;fill-rule:evenodd;stroke:#e74c3c;stroke-width:10;stroke-linecap:round;stroke-linejoin:round;stroke-miterlimit:4;stroke-dasharray:none;stroke-opacity:1" />
        <path
           style="fill:none;fill-rule:evenodd;stroke:#e74c3c;stroke-width:10;stroke-linecap:round;stroke-linejoin:round;stroke-miterlimit:4;stroke-dasharray:none;stroke-opacity:1"
           d="m 369.3524,96.473119 31.4745,73.318001 -31.57716,73.85807"
           id="path4207" />
        <path
           d="m 349.33385,243.88442 -32.18516,-74.0933 m 0,0 32.25859,-72.925956 31.34691,73.396406 -31.42034,73.62285"
           style="fill:#e74c3c;fill-opacity:1;fill-rule:evenodd;stroke:#e74c3c;stroke-width:10;stroke-linecap:round;stroke-linejoin:round;stroke-miterlimit:4;stroke-dasharray:none;stroke-opacity:1"
           id="path4209" />
      </g>
    </g>
  </g>
</svg>
